inDegrees=no
num_controls=7
num_derivatives=13
num_iterations=79
num_multipliers=7
num_parameters=0
num_slacks=7
num_states=26
objective=0.452290
objective_accelerations=0.049455
objective_balance=0.001075
objective_effort=0.038404
objective_height=0.357672
objective_ligament=0.005684
solver_duration=920.072924
status=Solve_Succeeded
success=true
DataType=double
version=3
OpenSimVersion=4.5
endheader
time	/jointset/ground_pelvis/pelvis_tilt/value	/jointset/ground_pelvis/pelvis_tx/value	/jointset/ground_pelvis/pelvis_ty/value	/jointset/hip_r/hip_flexion_r/value	/jointset/hip_r/hip_adduction_r/value	/jointset/hip_r/hip_rotation_r/value	/jointset/back/lumbar_extension/value	/jointset/patellofemoral_r/patellar_flexion_r/value	/jointset/knee_r/knee_flexion_r/value	/jointset/knee_r/knee_adduction_r/value	/jointset/knee_r/knee_rotation_r/value	/jointset/ankle_r/ankle_angle_r/value	/jointset/subtalar_r/subtalar_angle_r/value	/jointset/ground_pelvis/pelvis_tilt/speed	/jointset/ground_pelvis/pelvis_tx/speed	/jointset/ground_pelvis/pelvis_ty/speed	/jointset/hip_r/hip_flexion_r/speed	/jointset/hip_r/hip_adduction_r/speed	/jointset/hip_r/hip_rotation_r/speed	/jointset/back/lumbar_extension/speed	/jointset/patellofemoral_r/patellar_flexion_r/speed	/jointset/knee_r/knee_flexion_r/speed	/jointset/knee_r/knee_adduction_r/speed	/jointset/knee_r/knee_rotation_r/speed	/jointset/ankle_r/ankle_angle_r/speed	/jointset/subtalar_r/subtalar_angle_r/speed	/forceset/tau_hip_flexion_r	/forceset/tau_hip_adduction_r	/forceset/tau_hip_rotation_r	/forceset/tau_knee_flexion_r	/forceset/tau_ankle_angle_r	/forceset/tau_subtalar_angle_r	/forceset/tau_lumbar_extension	lambda_cid13_p0	lambda_cid14_p0	lambda_cid14_p1	lambda_cid14_p2	lambda_cid14_p3	lambda_cid14_p4	lambda_cid14_p5	/jointset/ground_pelvis/pelvis_tilt/accel	/jointset/ground_pelvis/pelvis_tx/accel	/jointset/ground_pelvis/pelvis_ty/accel	/jointset/hip_r/hip_flexion_r/accel	/jointset/hip_r/hip_adduction_r/accel	/jointset/hip_r/hip_rotation_r/accel	/jointset/back/lumbar_extension/accel	/jointset/patellofemoral_r/patellar_flexion_r/accel	/jointset/knee_r/knee_flexion_r/accel	/jointset/knee_r/knee_adduction_r/accel	/jointset/knee_r/knee_rotation_r/accel	/jointset/ankle_r/ankle_angle_r/accel	/jointset/subtalar_r/subtalar_angle_r/accel	gamma_cid13_p0	gamma_cid14_p0	gamma_cid14_p1	gamma_cid14_p2	gamma_cid14_p3	gamma_cid14_p4	gamma_cid14_p5
1	-0.2287914512373825	-0.01703547336796912	0.6229830793490582	1.457076937658734	-0.2396656115343952	-0.07882405270426851	-0.7853978674728926	1.544728285051487	1.54472828505142	-0.1745192896884811	0.1745269667857521	0.4362664872408659	0.1730212687337181	0.06714091172514586	0.004728818065533549	0.01695504274395833	-0.1017097578949823	-0.0005083163385224053	-0.002640012599527541	0.0001401845423686376	-0.02290548697418308	-0.02290548697417905	0.004468510185415079	-0.0006629569578909461	0.01144630684540708	0.004947149633450828	-0.3340861867143407	0.03817433013019325	0.00939197852940472	-0.4784211322602576	-0.005276304888190999	-0.000943510756116903	0.3598592691383253	-0.04064213985004959	-54.50404671872535	-15.11170841209823	8.723604163603383	7.945886838159899	-775.3456855361153	61.39812835302976	1.23124489163609	0.1399490709154354	1.926320305701092	-5.660287991816172	0.2679373386217769	-0.7451678362203091	0.02318132380484316	-5.269235067199613	-5.269235067199709	0.5836061594538831	-0.03609063380669537	-0.9876220779762798	0.02004725033616732	9.675833830089942e-10	2.180753857739365e-09	1.232491990510887e-08	8.135172360248898e-09	-2.598658714263396e-09	-4.058610674429098e-09	1.925287194165687e-08
1.01	-0.2280593526546539	-0.01698104682319558	0.6232487344558724	1.455777911423869	-0.2396573532106503	-0.07888474343765274	-0.7853932003049091	1.544236452832831	1.544236452832788	-0.1744425108896429	0.1745181821846856	0.4363317878920019	0.1730716744370849	0.07925386585152905	0.006173703834468024	0.03616689268597077	-0.1580715523539745	0.002154189276132337	-0.009451803392377707	0.0009327097019027702	-0.07543420278743629	-0.07543420278743314	0.01093339154810921	-0.001095117206813937	0.001638160310942202	0.005133956679304817	-0.334497146235782	0.03818472546515021	0.009450544242008408	-0.4782763962476109	-0.005399313523530483	-0.0009290152675415116	0.360538049097709	-0.04063606328890558	-54.55122661257631	-15.11034261326925	8.719581501983118	7.747743865939308	-775.6153036708483	61.39922778448755	1.197581804921011	0.1493393582339944	1.917252177312249	-5.62053284534818	0.2645444497596695	-0.6422319596828093	0.128207205416064	-5.240678058740946	-5.240678058741017	0.6848495527325309	-0.04693896743698259	-0.9737603574473364	0.01800401499648045	6.522894083118095e-09	9.211449887709362e-09	3.951099555320463e-08	4.672284189787283e-08	-4.54747160915708e-09	-1.128300567927404e-08	8.752374410947303e-08
1.02	-0.2272068723043047	-0.0169116552150624	0.6237062350298789	1.45391598570993	-0.2396226423753843	-0.07901216153074102	-0.7853764240664639	1.543220135811972	1.543220135811954	-0.1742996991915597	0.1745050439317293	0.4362997371945849	0.1731239495275675	0.09121726524917498	0.007721830737461874	0.05532413618242352	-0.2142896537092648	0.004782185965682499	-0.01598548453984611	0.002561998596966672	-0.1278024474148002	-0.1278024474147971	0.01767509003301793	-0.001533687335811254	-0.008023962874152716	0.005321027056616668	-0.3349081057572335	0.03819512080010039	0.009509109954616757	-0.4781316602349639	-0.005522322158870103	-0.0009145197789790142	0.3612168290570829	-0.0406375703681888	-54.605987962531	-15.10635809931335	8.710633485440621	7.552679922011132	-776.0056100831434	61.43214021765098	1.20133394588865	0.1605972977273063	1.915399016589154	-5.631549371075801	0.2610355536008591	-0.6895459071439729	0.1905340709104718	-5.237140830021735	-5.237140830021679	0.6389695838967844	-0.03737260982155314	-0.9584174081022931	0.020099916627734	1.263668656887677e-08	1.938689093048709e-08	7.715588851884476e-08	9.151976486290168e-08	-1.144051465761445e-08	-1.897380547093771e-08	1.721705239247143e-07
1.03	-0.2262357443620627	-0.0168263005974641	0.6243549623026717	1.451493024149225	-0.2395619222131315	-0.07920360406725238	-0.785338946150099	1.541680870269855	1.541680870269825	-0.1740879865124692	0.1744877980579136	0.4361715026745727	0.1731777607835805	0.1029577113960992	0.009362940851882008	0.07440476435237167	-0.2702342991341303	0.007347560193183199	-0.02226573535403509	0.005097984241390715	-0.1800307054183015	-0.18003070541832	0.0247204576682933	-0.001889022871088164	-0.01762738948672675	0.005410411006904905	-0.3351122706106219	0.03822885799807339	0.009621638660661026	-0.4776906200356567	-0.005794566498746071	-0.0009028575776895728	0.3617370152427418	-0.04065519500632327	-54.69422954272167	-15.10492602527615	8.69690676374281	7.464393131868335	-776.1211332915942	61.42309356402786	1.152813870011628	0.1679413598487844	1.901906233114389	-5.565662819615357	0.2521627928385454	-0.5916619789756624	0.309790745655506	-5.212678735292843	-5.212678735296113	0.7452692915596284	-0.03060674392092271	-0.9619719713957494	-0.001230129841406438	1.875617784836656e-08	2.95944212080894e-08	1.149075041101742e-07	1.363800475567816e-07	-1.838400903416945e-08	-2.666936449511995e-08	2.569844048383987e-07
1.04	-0.2251487291741682	-0.01672412018041172	0.6251939981603474	1.448512667995988	-0.2394759734215005	-0.07945672857399319	-0.7852711763903862	1.539619920057747	1.539619920057704	-0.1738042303693783	0.1744678002850344	0.4359471005517191	0.1732315483262822	0.1143947143797173	0.01108699062827938	0.09338585315899399	-0.3257685722159323	0.009827911841241196	-0.02832187858499656	0.008620367263699523	-0.2321393814129434	-0.2321393814129836	0.03208378283223794	-0.002084067147970515	-0.02725748344173293	0.005316284394361196	-0.3353164354640068	0.03826259519603753	0.00973416736669414	-0.4772495798363502	-0.006066810838625088	-0.0008911953764180136	0.3622572014284037	-0.04068027104074956	-54.78996572221713	-15.1006085327328	8.677924922625166	7.377265937378954	-776.3581996747122	61.4469019719408	1.14064531322745	0.1771852301227462	1.895491143923987	-5.549474902463103	0.2440310377123142	-0.6447243904984817	0.3878135464873719	-5.213224428249851	-5.213224428249795	0.702561089630635	-0.005314358142626797	-0.9637508765887386	-0.01660219593866947	2.514001746898136e-08	3.845887653525335e-08	1.432702113509189e-07	1.810947340781455e-07	-2.266766626961195e-08	-3.353243229483677e-08	3.32665752890526e-07
1.05	-0.2239486626015635	-0.01660425756129791	0.6262223045659434	1.444978926671951	-0.2393655798187801	-0.07976920662052248	-0.7851634397078677	1.537038559288524	1.537038559288488	-0.1734452844986681	0.1744464597830379	0.4356262446321227	0.1732835883861785	0.1255852861787004	0.01290206912164435	0.1122543710459245	-0.3809183312222481	0.01224498549535397	-0.03412621456087449	0.01307566095010094	-0.2841050587933481	-0.28410505879339	0.03975399868793097	-0.002181407022956973	-0.03691970468189822	0.005075706064928873	-0.3352771544552274	0.03828690643266446	0.00990611106575724	-0.4765269269661274	-0.006282331938750304	-0.000881043566031401	0.3625861383861185	-0.04071049608216831	-54.8437301566104	-15.08532548243457	8.652314935626144	7.264520965437203	-776.2498852521836	61.44786174732406	1.103275216385411	0.1861441319193148	1.879365430971933	-5.488513427544027	0.2397007139416633	-0.5411426613668315	0.4966910361456887	-5.184088718171685	-5.184088718171962	0.8065360508611743	-0.01148876115616124	-0.9683570369376981	-0.03013525171017466	3.153211797525631e-08	4.728136077021611e-08	1.713395152057079e-07	2.258048707191183e-07	-2.68682035943947e-08	-4.036948474378905e-08	4.080617092907297e-07
1.06	-0.2226376878903386	-0.01646574916265523	0.6274386628143875	1.440895530352291	-0.2392311844425808	-0.08013829891886681	-0.7850066893371955	1.53393837188045	1.533938371880419	-0.1730081796259346	0.174424236890486	0.4352085866422846	0.1733327527427276	0.136576342103753	0.01481614653405265	0.1309962217286332	-0.4356995713416901	0.01462826653670963	-0.0396447289461291	0.01842310489366891	-0.3359047091831888	-0.3359047091832328	0.04771558323652741	-0.002260545257122378	-0.04661789749035531	0.004741143724908701	-0.3352378734464185	0.03831121766927067	0.01007805476483463	-0.4758042740959025	-0.006497853038886617	-0.0008708917556896143	0.36291507534386	-0.04074812570565034	-54.90496366531809	-15.0668567263052	8.621064037589031	7.151754777133398	-776.2648097107879	61.48291339631295	1.100742138441348	0.1969850139314041	1.870157703079631	-5.475771125088366	0.2372725151608864	-0.5875600723738205	0.5662435979206695	-5.180019030137016	-5.180019030137069	0.7608348282113173	-0.001674029978398266	-0.9709451902471207	-0.03539899805625829	3.747421190486417e-08	5.620675309717438e-08	2.021512504554986e-07	2.697140666142312e-07	-3.188409698843838e-08	-4.683069572212922e-08	4.82659775306465e-07
